<svg width="153" height="148" viewBox="0 0 153 148" fill="none" xmlns="http://www.w3.org/2000/svg">
<g filter="url(#filter0_d_550_57)">
<rect x="47.75" y="52.1211" width="52.5" height="52.5" rx="26.25" fill="url(#paint0_linear_550_57)"/>
</g>
<path d="M65.7754 71.8535C65.7971 71.8802 67.3584 73.8005 68.3926 74.5391C69.4318 75.281 71.6324 76.0404 71.6426 76.0439C71.6622 76.09 73.6617 80.791 72.8496 85.0264C72.0333 89.2826 68.709 92.6406 68.709 92.6406C68.709 92.6406 61.7502 88.5697 61.75 81.8066C61.75 75.0591 65.7568 71.8683 65.7754 71.8535ZM82.2246 71.8535C82.2619 71.8832 86.25 75.075 86.25 81.8066C86.2498 88.5601 79.3109 92.629 79.291 92.6406C79.2621 92.6113 75.9631 89.2638 75.1504 85.0264C74.3378 80.7884 76.3402 76.0842 76.3574 76.0439C76.3749 76.0379 78.57 75.2797 79.6074 74.5391C80.6427 73.7997 82.2063 71.8761 82.2246 71.8535ZM78.1211 64.9326C78.5368 64.3391 79.3546 64.1948 79.9482 64.6104C80.542 65.0261 80.6862 65.8448 80.2705 66.4385L78.1426 69.4766C79.5164 69.9154 80.4557 70.3879 80.4668 70.3936C80.4537 70.416 78.1548 74.3514 74.2637 74.3516C70.3814 74.3515 67.6162 70.7006 67.5879 70.6631C67.5943 70.659 68.5762 70.0336 70.0293 69.4971L67.7129 66.7363C67.2471 66.1811 67.3198 65.3535 67.875 64.8877C68.4302 64.422 69.2578 64.4947 69.7236 65.0498L72.6855 68.5801C72.7445 68.6503 72.7951 68.725 72.8369 68.8027C73.1853 68.7622 73.5408 68.7393 73.8994 68.7393C74.402 68.7393 74.9036 68.7805 75.3936 68.8457C75.4185 68.7988 75.4463 68.7526 75.4775 68.708L78.1211 64.9326Z" fill="white"/>
<defs>
<filter id="filter0_d_550_57" x="-4.37121" y="-0.000118256" width="156.742" height="156.742" filterUnits="userSpaceOnUse" color-interpolation-filters="sRGB">
<feFlood flood-opacity="0" result="BackgroundImageFix"/>
<feColorMatrix in="SourceAlpha" type="matrix" values="0 0 0 0 0 0 0 0 0 0 0 0 0 0 0 0 0 0 127 0" result="hardAlpha"/>
<feOffset/>
<feGaussianBlur stdDeviation="26.0606"/>
<feColorMatrix type="matrix" values="0 0 0 0 0.596078 0 0 0 0 0.764706 0 0 0 0 0.184314 0 0 0 0.7 0"/>
<feBlend mode="normal" in2="BackgroundImageFix" result="effect1_dropShadow_550_57"/>
<feBlend mode="normal" in="SourceGraphic" in2="effect1_dropShadow_550_57" result="shape"/>
</filter>
<linearGradient id="paint0_linear_550_57" x1="47.75" y1="52.1211" x2="47.75" y2="104.621" gradientUnits="userSpaceOnUse">
<stop stop-color="#92BC2C"/>
<stop offset="1" stop-color="#AFC836"/>
</linearGradient>
</defs>
</svg>
