<svg width="154" height="157" viewBox="0 0 154 157" fill="none" xmlns="http://www.w3.org/2000/svg">
<g filter="url(#filter0_d_550_73)">
<rect x="48.75" y="52.1211" width="52.5" height="52.5" rx="26.25" fill="url(#paint0_linear_550_73)"/>
</g>
<path d="M75.0005 64.3706C82.7321 64.3708 89.0002 70.639 89.0005 78.3706C89.0005 86.1024 82.7323 92.3704 75.0005 92.3706C67.2685 92.3706 61.0005 86.1026 61.0005 78.3706C61.0007 70.6388 67.2687 64.3706 75.0005 64.3706ZM75.0005 68.105C75.0492 68.1521 78.9067 71.9028 78.9067 78.6968C78.9067 85.513 75.0243 88.6192 75.0005 88.6382C75.082 88.6368 86.3942 88.429 86.0698 78.6968C85.7455 68.9672 75.083 68.1115 75.0005 68.105Z" fill="white"/>
<defs>
<filter id="filter0_d_550_73" x="-3.37121" y="-0.000118256" width="156.742" height="156.742" filterUnits="userSpaceOnUse" color-interpolation-filters="sRGB">
<feFlood flood-opacity="0" result="BackgroundImageFix"/>
<feColorMatrix in="SourceAlpha" type="matrix" values="0 0 0 0 0 0 0 0 0 0 0 0 0 0 0 0 0 0 127 0" result="hardAlpha"/>
<feOffset/>
<feGaussianBlur stdDeviation="26.0606"/>
<feColorMatrix type="matrix" values="0 0 0 0 0.364706 0 0 0 0 0.34902 0 0 0 0 0.415686 0 0 0 0.7 0"/>
<feBlend mode="normal" in2="BackgroundImageFix" result="effect1_dropShadow_550_73"/>
<feBlend mode="normal" in="SourceGraphic" in2="effect1_dropShadow_550_73" result="shape"/>
</filter>
<linearGradient id="paint0_linear_550_73" x1="49.0884" y1="52.1211" x2="49.0884" y2="103.944" gradientUnits="userSpaceOnUse">
<stop stop-color="#595761"/>
<stop offset="1" stop-color="#6E7587"/>
</linearGradient>
</defs>
</svg>
