<svg width="157" height="157" viewBox="0 0 157 157" fill="none" xmlns="http://www.w3.org/2000/svg">
<g filter="url(#filter0_d_550_67)">
<rect x="52.1211" y="52.1211" width="52.5" height="52.5" rx="26.25" fill="url(#paint0_linear_550_67)"/>
</g>
<path fill-rule="evenodd" clip-rule="evenodd" d="M79.7366 78.3099C79.9264 78.1942 80.0874 77.9517 80.2172 77.6822C81.926 78.3806 83.1267 80.0308 83.1267 81.9553C83.1267 84.512 81.0076 86.5845 78.3935 86.5845C77.3205 86.5845 76.3308 86.2353 75.5369 85.6467C75.2765 85.5234 75.0622 85.4049 74.8868 85.3079C74.6149 85.1576 74.4366 85.059 74.3249 85.0744C73.9984 85.1194 74.0932 85.4198 74.1793 85.6926C74.2378 85.878 74.2923 86.0506 74.208 86.1218C74.1197 86.1964 73.8338 85.9238 73.4997 85.6053C73.045 85.1717 72.5009 84.6529 72.2444 84.8087C72.0415 84.932 72.2385 85.2662 72.4795 85.6752L72.4974 85.7056C72.5992 85.8785 72.7172 86.0546 72.8249 86.2152C73.0438 86.5418 73.2202 86.8049 73.1319 86.8495C73.0253 86.9033 72.2823 86.4018 71.6562 85.7056C71.4145 85.4369 71.1804 85.1456 70.9629 84.8749C70.4867 84.2824 70.09 83.7889 69.8674 83.8473C69.5995 83.9177 69.8021 84.4702 70.0999 85.002C70.2391 85.2506 70.4029 85.5039 70.5447 85.7231C70.7653 86.064 70.9327 86.3228 70.872 86.3546C70.79 86.3974 70.0692 85.6945 69.5796 84.8087C69.2888 84.2826 69.0446 83.7012 68.847 83.2304C68.6326 82.72 68.4729 82.3397 68.3677 82.3014C68.0024 82.1685 68.0024 82.9134 68.1489 83.9885C68.168 84.1287 68.1965 84.2758 68.2315 84.4256C69.6525 89.0234 74.0177 92.3711 79.1824 92.3711C85.4997 92.3711 90.6209 87.3624 90.6209 81.1838C90.6209 75.3031 85.9818 70.4823 80.0876 70.0309C80.0951 69.7539 80.2396 69.2045 80.2396 69.2045C80.2396 69.2045 81.2802 66.687 81.3352 66.149C81.3388 66.1133 81.3432 66.0745 81.3478 66.0332C81.4126 65.4519 81.5332 64.3711 80.6034 64.3711C80.1068 64.3711 79.8759 64.7405 79.6118 65.163C79.5104 65.3252 79.4042 65.4952 79.2761 65.6551C78.3536 66.8071 76.8024 68.2456 75.9229 69.012C74.0638 70.632 72.2399 71.9633 71.1762 72.7397L71.1761 72.7397L71.1761 72.7397C70.6923 73.0929 70.3657 73.3313 70.2647 73.4298C69.5031 74.1722 66.7724 79.0977 66.7724 79.0977C66.7724 79.0977 65.8893 80.678 66.2032 80.9984C66.5171 81.3189 67.274 81.2455 67.274 81.2455C67.274 81.2455 77.4426 78.9127 78.353 78.7287C78.5981 78.6791 78.7712 78.6506 78.904 78.6286C79.2647 78.5691 79.3294 78.5584 79.7366 78.3099ZM72.547 75.3121C72.0012 75.8309 71.096 77.0693 71.096 77.0693C71.096 77.0693 72.7784 77.173 73.705 76.2922C74.6316 75.4114 74.4193 73.9104 74.4193 73.9104C74.4193 73.9104 73.0929 74.7933 72.547 75.3121Z" fill="white"/>
<defs>
<filter id="filter0_d_550_67" x="-0.000118256" y="-0.000118256" width="156.742" height="156.742" filterUnits="userSpaceOnUse" color-interpolation-filters="sRGB">
<feFlood flood-opacity="0" result="BackgroundImageFix"/>
<feColorMatrix in="SourceAlpha" type="matrix" values="0 0 0 0 0 0 0 0 0 0 0 0 0 0 0 0 0 0 127 0" result="hardAlpha"/>
<feOffset/>
<feGaussianBlur stdDeviation="26.0606"/>
<feColorMatrix type="matrix" values="0 0 0 0 0.027451 0 0 0 0 0.427451 0 0 0 0 0.752941 0 0 0 0.7 0"/>
<feBlend mode="normal" in2="BackgroundImageFix" result="effect1_dropShadow_550_67"/>
<feBlend mode="normal" in="SourceGraphic" in2="effect1_dropShadow_550_67" result="shape"/>
</filter>
<linearGradient id="paint0_linear_550_67" x1="52.4595" y1="52.1211" x2="52.4595" y2="103.944" gradientUnits="userSpaceOnUse">
<stop stop-color="#0C69C8"/>
<stop offset="1" stop-color="#0180C7"/>
</linearGradient>
</defs>
</svg>
