<svg width="157" height="157" viewBox="0 0 157 157" fill="none" xmlns="http://www.w3.org/2000/svg">
<g filter="url(#filter0_d_550_87)">
<rect x="52.1211" y="52.1211" width="52.5" height="52.5" rx="26.25" fill="url(#paint0_linear_550_87)"/>
</g>
<path d="M88.1427 67.3929C88.1527 67.4469 90.866 82.1689 85.7244 87.3107C81.2815 91.7536 75.9794 91.6571 71.9076 88.8499L75.4617 84.4809L81.7718 83.1164L76.6211 82.6006L79.8943 79.2625L83.6211 78.4442L80.6739 77.57L83.6211 72.246L79.4295 76.9555L77.8109 74.667L78.3813 78.4442L75.4617 81.7409L74.1083 77.57V83.1164L70.4291 87.6629C70.3052 87.5477 70.181 87.4313 70.0604 87.3107C65.8568 83.1069 66.0327 75.8128 70.9125 71.6245C75.7927 67.4362 88.1427 67.3929 88.1427 67.3929Z" fill="white"/>
<defs>
<filter id="filter0_d_550_87" x="-0.000118256" y="-0.000118256" width="156.742" height="156.742" filterUnits="userSpaceOnUse" color-interpolation-filters="sRGB">
<feFlood flood-opacity="0" result="BackgroundImageFix"/>
<feColorMatrix in="SourceAlpha" type="matrix" values="0 0 0 0 0 0 0 0 0 0 0 0 0 0 0 0 0 0 127 0" result="hardAlpha"/>
<feOffset/>
<feGaussianBlur stdDeviation="26.0606"/>
<feColorMatrix type="matrix" values="0 0 0 0 0.392157 0 0 0 0 0.72549 0 0 0 0 0.329412 0 0 0 0.7 0"/>
<feBlend mode="normal" in2="BackgroundImageFix" result="effect1_dropShadow_550_87"/>
<feBlend mode="normal" in="SourceGraphic" in2="effect1_dropShadow_550_87" result="shape"/>
</filter>
<linearGradient id="paint0_linear_550_87" x1="52.1211" y1="52.1211" x2="52.1211" y2="104.621" gradientUnits="userSpaceOnUse">
<stop stop-color="#5FBC51"/>
<stop offset="1" stop-color="#5AC178"/>
</linearGradient>
</defs>
</svg>
