<svg width="157" height="148" viewBox="0 0 157 148" fill="none" xmlns="http://www.w3.org/2000/svg">
<g filter="url(#filter0_d_550_9)">
<rect x="52.1211" y="52.1211" width="52.5" height="52.5" rx="26.25" fill="url(#paint0_linear_550_9)"/>
</g>
<path d="M73.0537 73.624C73.7806 73.6241 74.2866 74.3459 74.0391 75.0293L69.9102 86.4297C69.7599 86.8446 69.3651 87.1211 68.9238 87.1211H66.5967C65.865 87.1211 65.3577 86.3903 65.6143 85.7051L69.8848 74.3037C70.0382 73.8945 70.4302 73.624 70.8672 73.624H73.0537ZM84.2148 67.8711C84.6606 67.8712 85.0573 68.1533 85.2041 68.5742L91.1592 85.6523C91.3967 86.3337 90.8905 87.0459 90.1689 87.0459H71.1406C71.034 87.0459 70.9595 86.9403 70.9951 86.8398L77.4609 68.5693C77.6092 68.1508 78.0052 67.8711 78.4492 67.8711H84.2148Z" fill="white"/>
<defs>
<filter id="filter0_d_550_9" x="-0.000118256" y="-0.000118256" width="156.742" height="156.742" filterUnits="userSpaceOnUse" color-interpolation-filters="sRGB">
<feFlood flood-opacity="0" result="BackgroundImageFix"/>
<feColorMatrix in="SourceAlpha" type="matrix" values="0 0 0 0 0 0 0 0 0 0 0 0 0 0 0 0 0 0 127 0" result="hardAlpha"/>
<feOffset/>
<feGaussianBlur stdDeviation="26.0606"/>
<feColorMatrix type="matrix" values="0 0 0 0 0.847059 0 0 0 0 0.509804 0 0 0 0 0.333333 0 0 0 0.7 0"/>
<feBlend mode="normal" in2="BackgroundImageFix" result="effect1_dropShadow_550_9"/>
<feBlend mode="normal" in="SourceGraphic" in2="effect1_dropShadow_550_9" result="shape"/>
</filter>
<linearGradient id="paint0_linear_550_9" x1="52.4595" y1="52.1211" x2="52.4595" y2="103.944" gradientUnits="userSpaceOnUse">
<stop stop-color="#DC7545"/>
<stop offset="1" stop-color="#D29463"/>
</linearGradient>
</defs>
</svg>
