<svg width="154" height="157" viewBox="0 0 154 157" fill="none" xmlns="http://www.w3.org/2000/svg">
<g filter="url(#filter0_d_550_129)">
<rect x="48.75" y="52.1211" width="52.5" height="52.5" rx="26.25" fill="url(#paint0_linear_550_129)"/>
</g>
<path d="M75 66.1211C81.7655 66.1211 87.25 71.6056 87.25 78.3711C87.25 85.1366 81.7655 90.6211 75 90.6211C68.2345 90.6211 62.75 85.1366 62.75 78.3711C62.75 71.6056 68.2345 66.1211 75 66.1211ZM75 71.3711C71.134 71.3711 68 74.5051 68 78.3711C68 82.2371 71.134 85.3711 75 85.3711C78.866 85.3711 82 82.2371 82 78.3711C82 74.5051 78.866 71.3711 75 71.3711Z" fill="white"/>
<defs>
<filter id="filter0_d_550_129" x="-3.37121" y="-0.000118256" width="156.742" height="156.742" filterUnits="userSpaceOnUse" color-interpolation-filters="sRGB">
<feFlood flood-opacity="0" result="BackgroundImageFix"/>
<feColorMatrix in="SourceAlpha" type="matrix" values="0 0 0 0 0 0 0 0 0 0 0 0 0 0 0 0 0 0 127 0" result="hardAlpha"/>
<feOffset/>
<feGaussianBlur stdDeviation="26.0606"/>
<feColorMatrix type="matrix" values="0 0 0 0 0.364706 0 0 0 0 0.34902 0 0 0 0 0.415686 0 0 0 0.7 0"/>
<feBlend mode="normal" in2="BackgroundImageFix" result="effect1_dropShadow_550_129"/>
<feBlend mode="normal" in="SourceGraphic" in2="effect1_dropShadow_550_129" result="shape"/>
</filter>
<linearGradient id="paint0_linear_550_129" x1="49.0884" y1="52.1211" x2="49.0884" y2="103.944" gradientUnits="userSpaceOnUse">
<stop stop-color="#9298A4"/>
<stop offset="1" stop-color="#A3A49E"/>
</linearGradient>
</defs>
</svg>
