<svg width="154" height="157" viewBox="0 0 154 157" fill="none" xmlns="http://www.w3.org/2000/svg">
<g filter="url(#filter0_d_550_126)">
<rect x="48.75" y="52.1211" width="52.5" height="52.5" rx="26.25" fill="url(#paint0_linear_550_126)"/>
</g>
<path fill-rule="evenodd" clip-rule="evenodd" d="M84.5804 86.4668C84.5804 86.4668 81.4911 88.9445 75.3435 87.9192C70.6794 87.1413 68.1918 81.9998 68.1918 79.2362C68.1918 72.6839 73.0414 71.1928 76.32 71.1928C79.5986 71.1928 81.7374 74.3893 81.7374 76.8642C81.7374 79.3391 79.987 81.5037 77.263 81.5037C74.539 81.5037 73.7322 79.5913 73.7322 77.8332C73.7322 76.075 75.1547 75.4555 76.452 75.4555C77.7493 75.4555 78.1935 76.5631 78.1935 77.515C78.1935 78.467 77.4549 78.8079 76.8389 78.8079C76.2228 78.8079 76.1619 78.4971 75.9261 78.1705C75.6904 77.8439 76.2268 76.6076 75.3435 76.6076C74.4602 76.6076 74.2955 78.0288 74.2955 78.0288C74.2955 78.0288 74.6175 80.7723 77.263 80.7249C79.9085 80.6776 81.1634 78.6324 80.7987 76.6076C80.434 74.5827 78.4689 72.431 75.02 72.8658C71.5712 73.3006 70.163 76.7854 70.7837 80.5094C71.4044 84.2334 75.8658 86.3911 79.3735 85.6148C82.8813 84.8385 86.375 82.299 86.375 75.8604C86.375 69.4218 80.7987 65.5517 74.1495 66.1895C67.5003 66.8273 63.3728 72.6405 63.637 79.6251C63.9012 86.6098 70.5288 90.4138 76.1331 90.6099C81.7374 90.806 85.1731 87.5618 85.1731 87.5618C85.1731 87.5618 85.9458 86.8728 85.6429 86.3347C85.3399 85.7967 84.5804 86.4668 84.5804 86.4668Z" fill="white"/>
<defs>
<filter id="filter0_d_550_126" x="-3.37121" y="-0.000118256" width="156.742" height="156.742" filterUnits="userSpaceOnUse" color-interpolation-filters="sRGB">
<feFlood flood-opacity="0" result="BackgroundImageFix"/>
<feColorMatrix in="SourceAlpha" type="matrix" values="0 0 0 0 0 0 0 0 0 0 0 0 0 0 0 0 0 0 127 0" result="hardAlpha"/>
<feOffset/>
<feGaussianBlur stdDeviation="26.0606"/>
<feColorMatrix type="matrix" values="0 0 0 0 0.972549 0 0 0 0 0.486275 0 0 0 0 0.478431 0 0 0 0.7 0"/>
<feBlend mode="normal" in2="BackgroundImageFix" result="effect1_dropShadow_550_126"/>
<feBlend mode="normal" in="SourceGraphic" in2="effect1_dropShadow_550_126" result="shape"/>
</filter>
<linearGradient id="paint0_linear_550_126" x1="48.75" y1="52.1211" x2="48.75" y2="104.621" gradientUnits="userSpaceOnUse">
<stop stop-color="#F66F71"/>
<stop offset="1" stop-color="#FE9F92"/>
</linearGradient>
</defs>
</svg>
