<svg width="157" height="157" viewBox="0 0 157 157" fill="none" xmlns="http://www.w3.org/2000/svg">
<g filter="url(#filter0_d_550_134)">
<rect x="52.1211" y="52.1211" width="52.5" height="52.5" rx="26.25" fill="url(#paint0_linear_550_134)"/>
</g>
<path d="M83.8877 66.9961C84.5805 66.9961 85.2213 67.3652 85.5684 67.9648L91.0322 77.4043C91.3806 78.0063 91.38 78.7488 91.0312 79.3506L85.5684 88.7783C85.2211 89.3775 84.5802 89.7461 83.8877 89.7461H72.917C72.2278 89.7461 71.5896 89.3808 71.2412 88.7861L65.7178 79.3584C65.3628 78.7526 65.3622 78.0025 65.7168 77.3965L71.2412 67.957C71.5895 67.362 72.2275 66.9962 72.917 66.9961H83.8877ZM78.3711 72.2461C74.9883 72.2461 72.2461 74.9883 72.2461 78.3711C72.2461 81.7538 74.9883 84.4961 78.3711 84.4961C81.7538 84.4961 84.4961 81.7538 84.4961 78.3711C84.4961 74.9884 81.7538 72.2461 78.3711 72.2461Z" fill="white"/>
<defs>
<filter id="filter0_d_550_134" x="-0.000118256" y="-0.000118256" width="156.742" height="156.742" filterUnits="userSpaceOnUse" color-interpolation-filters="sRGB">
<feFlood flood-opacity="0" result="BackgroundImageFix"/>
<feColorMatrix in="SourceAlpha" type="matrix" values="0 0 0 0 0 0 0 0 0 0 0 0 0 0 0 0 0 0 127 0" result="hardAlpha"/>
<feOffset/>
<feGaussianBlur stdDeviation="26.0606"/>
<feColorMatrix type="matrix" values="0 0 0 0 0.313726 0 0 0 0 0.580392 0 0 0 0 0.631373 0 0 0 0.7 0"/>
<feBlend mode="normal" in2="BackgroundImageFix" result="effect1_dropShadow_550_134"/>
<feBlend mode="normal" in="SourceGraphic" in2="effect1_dropShadow_550_134" result="shape"/>
</filter>
<linearGradient id="paint0_linear_550_134" x1="52.1211" y1="52.1211" x2="52.1211" y2="104.621" gradientUnits="userSpaceOnUse">
<stop stop-color="#52869D"/>
<stop offset="1" stop-color="#58A6AA"/>
</linearGradient>
</defs>
</svg>
