<svg width="164" height="178" viewBox="0 0 164 178" fill="none" xmlns="http://www.w3.org/2000/svg">
<g filter="url(#filter0_d_550_154)">
<rect x="48.75" y="62.5757" width="52.5" height="52.5" rx="26.25" fill="url(#paint0_linear_550_154)"/>
</g>
<path fill-rule="evenodd" clip-rule="evenodd" d="M75 102.826C80.3157 102.826 84.625 98.3858 84.625 92.909C84.625 87.4322 75 73.0757 75 73.0757C75 73.0757 65.375 87.4322 65.375 92.909C65.375 98.3858 69.6843 102.826 75 102.826ZM69.1008 94.2312C69.1008 94.2312 70.9637 96.9996 73.1372 97.8673C75.3106 98.7351 79.3468 97.5368 79.3468 97.5368C79.3468 97.5368 77.4839 100.512 73.4476 99.8507C69.4114 99.1896 69.1008 94.2312 69.1008 94.2312Z" fill="white"/>
<defs>
<filter id="filter0_d_550_154" x="-13.8258" y="-7.24792e-05" width="177.652" height="177.652" filterUnits="userSpaceOnUse" color-interpolation-filters="sRGB">
<feFlood flood-opacity="0" result="BackgroundImageFix"/>
<feColorMatrix in="SourceAlpha" type="matrix" values="0 0 0 0 0 0 0 0 0 0 0 0 0 0 0 0 0 0 127 0" result="hardAlpha"/>
<feOffset/>
<feGaussianBlur stdDeviation="31.2879"/>
<feColorMatrix type="matrix" values="0 0 0 0 0.333333 0 0 0 0 0.619608 0 0 0 0 0.87451 0 0 0 0.7 0"/>
<feBlend mode="normal" in2="BackgroundImageFix" result="effect1_dropShadow_550_154"/>
<feBlend mode="normal" in="SourceGraphic" in2="effect1_dropShadow_550_154" result="shape"/>
</filter>
<linearGradient id="paint0_linear_550_154" x1="48.75" y1="62.5757" x2="48.75" y2="115.076" gradientUnits="userSpaceOnUse">
<stop stop-color="#4A90DD"/>
<stop offset="1" stop-color="#6CBDE4"/>
</linearGradient>
</defs>
</svg>
