<svg width="25" height="29" viewBox="0 0 25 29" fill="none" xmlns="http://www.w3.org/2000/svg">
<path d="M4.02539 7.48047C4.04706 7.50715 5.60843 9.42745 6.64258 10.166C7.68176 10.9079 9.88242 11.6674 9.89258 11.6709C9.91222 11.7169 11.9117 16.4179 11.0996 20.6533C10.2833 24.9095 6.95898 28.2676 6.95898 28.2676C6.95898 28.2676 0.000228312 24.1967 0 17.4336C3.88022e-05 10.6861 4.00675 7.49527 4.02539 7.48047ZM20.4746 7.48047C20.5119 7.51014 24.5 10.7019 24.5 17.4336C24.4998 24.187 17.5609 28.2559 17.541 28.2676C17.5121 28.2383 14.2131 24.8908 13.4004 20.6533C12.5878 16.4153 14.5902 11.7112 14.6074 11.6709C14.6249 11.6649 16.82 10.9067 17.8574 10.166C18.8927 9.42663 20.4563 7.50301 20.4746 7.48047ZM16.3711 0.55957C16.7868 -0.0339767 17.6046 -0.178218 18.1982 0.237305C18.792 0.653028 18.9362 1.47172 18.5205 2.06543L16.3926 5.10352C17.7664 5.54234 18.7057 6.01489 18.7168 6.02051C18.7037 6.04296 16.4048 9.97838 12.5137 9.97852C8.63138 9.97849 5.86623 6.3276 5.83789 6.29004C5.84432 6.28594 6.82617 5.66055 8.2793 5.12402L5.96289 2.36328C5.49711 1.80806 5.56982 0.980503 6.125 0.514648C6.68022 0.0489808 7.50781 0.121614 7.97363 0.676758L10.9355 4.20703C10.9945 4.27728 11.0451 4.35199 11.0869 4.42969C11.4353 4.38911 11.7908 4.36621 12.1494 4.36621C12.652 4.36623 13.1536 4.40746 13.6436 4.47266C13.6685 4.42576 13.6963 4.37958 13.7275 4.33496L16.3711 0.55957Z" fill="white"/>
</svg>
