<svg width="25" height="28" viewBox="0 0 25 28" fill="none" xmlns="http://www.w3.org/2000/svg">
<path fill-rule="evenodd" clip-rule="evenodd" d="M13.6009 13.9388C13.7906 13.8231 13.9516 13.5806 14.0815 13.3111C15.7902 14.0095 16.991 15.6597 16.991 17.5842C16.991 20.1409 14.8719 22.2134 12.2578 22.2134C11.1847 22.2134 10.1951 21.8642 9.40115 21.2756C9.14072 21.1523 8.92645 21.0338 8.75111 20.9369C8.47915 20.7865 8.30083 20.6879 8.18915 20.7033C7.86269 20.7483 7.95749 21.0487 8.0436 21.3215C8.1021 21.5069 8.15659 21.6795 8.07225 21.7507C7.98394 21.8253 7.69805 21.5527 7.36397 21.2342C6.90921 20.8006 6.36516 20.2818 6.10864 20.4377C5.90578 20.5609 6.10272 20.8951 6.34376 21.3041L6.36166 21.3345C6.4635 21.5074 6.5815 21.6835 6.6892 21.8441C6.90808 22.1707 7.08443 22.4338 6.99617 22.4784C6.88956 22.5322 6.14659 22.0307 5.52045 21.3345C5.27877 21.0658 5.04467 20.7745 4.82716 20.5038C4.351 19.9114 3.9543 19.4178 3.73162 19.4762C3.46374 19.5466 3.66639 20.0991 3.96413 20.6309C4.10337 20.8795 4.26718 21.1328 4.40901 21.352C4.62954 21.6929 4.79695 21.9517 4.73621 21.9835C4.6543 22.0263 3.93345 21.3234 3.44388 20.4377C3.15308 19.9115 2.9089 19.3301 2.71122 18.8594C2.49683 18.3489 2.33714 17.9686 2.23199 17.9303C1.86664 17.7974 1.86664 18.5423 2.01317 19.6174C2.03229 19.7577 2.06075 19.9047 2.09579 20.0545C3.51679 24.6523 7.882 28 13.0467 28C19.364 28 24.4852 22.9913 24.4852 16.8127C24.4852 10.932 19.846 6.11117 13.9519 5.65984C13.9593 5.3828 14.1039 4.83345 14.1039 4.83345C14.1039 4.83345 15.1445 2.31586 15.1994 1.77789C15.2031 1.74218 15.2074 1.70338 15.212 1.66206C15.2769 1.08078 15.3974 0 14.4676 0C13.9711 0 13.7402 0.369394 13.4761 0.79187C13.3747 0.954058 13.2684 1.12407 13.1403 1.28401C12.2179 2.43598 10.6667 3.87455 9.78714 4.64095C7.9281 6.26087 6.10416 7.59218 5.04041 8.36862L5.0404 8.36862L5.04037 8.36864C4.55654 8.7218 4.22998 8.96016 4.12893 9.05866C3.36733 9.8011 0.636663 14.7266 0.636663 14.7266C0.636663 14.7266 -0.246405 16.3069 0.067474 16.6273C0.381353 16.9478 1.13827 16.8744 1.13827 16.8744C1.13827 16.8744 11.3069 14.5416 12.2173 14.3576C12.4624 14.308 12.6354 14.2795 12.7683 14.2575C13.1289 14.198 13.1937 14.1873 13.6009 13.9388ZM6.41129 10.941C5.86548 11.4598 4.96023 12.6982 4.96023 12.6982C4.96023 12.6982 6.64264 12.8019 7.56923 11.9211C8.49582 11.0403 8.28351 9.5393 8.28351 9.5393C8.28351 9.5393 6.95711 10.4222 6.41129 10.941Z" fill="white"/>
</svg>
