<svg width="25" height="25" viewBox="0 0 25 25" fill="none" xmlns="http://www.w3.org/2000/svg">
<path d="M11.1045 0.657227C11.5841 -0.219323 12.8434 -0.219094 13.3232 0.657227L15.8838 5.33789L18.1416 4.68359C19.1014 4.4053 19.9891 5.29763 19.7061 6.25586L19.0371 8.51465L23.7705 11.1045C24.6474 11.5841 24.6474 12.8436 23.7705 13.3232L19.0918 15.8809L19.7061 17.9551C19.9894 18.9134 19.1015 19.8057 18.1416 19.5273L15.9854 18.9023L13.3232 23.7705C12.8436 24.6473 11.5841 24.6474 11.1045 23.7705L8.44238 18.9023L6.28711 19.5273C5.32733 19.8054 4.43942 18.9133 4.72266 17.9551L5.33594 15.8809L0.657227 13.3232C-0.219098 12.8435 -0.219266 11.5841 0.657227 11.1045L5.39062 8.51465L4.72266 6.25586C4.43997 5.29791 5.32762 4.40579 6.28711 4.68359L8.54395 5.33691L11.1045 0.657227ZM13.3594 9.47461C12.8796 8.5982 11.6202 8.59805 11.1406 9.47461L10.5518 10.5518L9.47559 11.1406C8.59871 11.6203 8.59867 12.8798 9.47559 13.3594L10.5518 13.9482L11.1406 15.0244C11.6202 15.9013 12.8798 15.9013 13.3594 15.0244L13.9482 13.9482L15.0254 13.3594C15.902 12.8798 15.9019 11.6204 15.0254 11.1406L13.9482 10.5518L13.3594 9.47461Z" fill="white"/>
</svg>
