<svg width="25" height="27" viewBox="0 0 25 27" fill="none" xmlns="http://www.w3.org/2000/svg">
<path d="M6.45898 0C7.47788 6.38604e-05 8.37267 0.527632 8.88867 1.32324C8.9688 1.31658 9.04999 1.3125 9.13184 1.3125C9.32046 1.31251 9.50503 1.33176 9.68359 1.36621C10.2124 0.79623 10.9659 0.437518 11.8047 0.4375C12.9967 0.437575 14.0199 1.15839 14.4639 2.1875C14.4683 2.18748 14.4731 2.1875 14.4775 2.1875C14.6834 2.18752 14.8844 2.20914 15.0781 2.25C15.5418 1.9346 16.1021 1.75 16.7051 1.75C17.9563 1.75022 19.0186 2.54566 19.4229 3.65723C19.6439 3.7328 19.8526 3.83411 20.0459 3.95801C20.4961 3.66953 21.0301 3.50005 21.6045 3.5C23.2035 3.5001 24.4999 4.7965 24.5 6.39551V15.2354C24.5 15.2657 24.497 15.296 24.4961 15.3262C24.3602 21.3802 18.9301 26.2499 12.25 26.25C5.48466 26.2499 8.82914e-05 21.255 0 15.0938C4.26034e-05 12.1204 1.27926 9.42066 3.36133 7.4209C3.35618 10.3193 3.4052 13.3141 3.63086 13.2627C4.23335 13.1208 3.76317 4.18317 3.65137 2.19531C3.96475 0.934857 5.10166 0.00013933 6.45898 0Z" fill="white"/>
</svg>
