<svg width="20" height="26" viewBox="0 0 20 26" fill="none" xmlns="http://www.w3.org/2000/svg">
<path d="M9.0791 0C9.08631 0.00636316 11.436 2.08145 12.0928 4.75977C12.7502 7.44205 10.5731 11.0939 13.3057 10.9512C16.0326 10.8084 13.675 6.61316 13.6641 6.59375C13.6641 6.59375 19.8646 9.85239 19.4014 15.5518C18.9381 21.2511 12.624 22.5469 12.624 22.5469C12.624 22.5469 14.2751 21.1916 14.5957 20.0205C14.9139 18.8573 14.3023 16.4738 14.2939 16.4414C14.2871 16.4712 13.8379 18.4086 13.1387 19.1279C12.5362 19.7477 11.7973 20.1756 10.7373 20.2871C11.604 19.8688 12.2021 18.9956 12.2021 17.9824C12.2021 16.5634 11.0314 15.4131 9.58789 15.4131C8.14456 15.4133 6.97469 16.5636 6.97461 17.9824C6.97461 18.3701 7.06428 18.7368 7.2207 19.0664C6.31675 18.3472 6.17285 17.1943 6.17285 17.1943C6.17285 17.1943 5.16535 21.3806 7.94336 23.3496C10.7214 25.3184 16.1631 23.626 16.1631 23.626C16.1631 23.626 8.37532 29.1056 2.60449 23.1416C-2.36655 18.0041 1.30664 11.2402 1.30664 11.2402C1.30664 11.2402 1.14844 11.8683 1.14844 12.5967C1.14851 13.3177 1.5353 13.8681 1.54297 13.8789C1.54756 13.8692 2.72275 11.3947 3.6377 10.3867C5.1732 8.69546 7.398 7.56926 8.27051 6.59375C10.3591 4.25832 9.08075 0.00548654 9.0791 0Z" fill="white"/>
</svg>
