<svg width="28" height="25" viewBox="0 0 28 25" fill="none" xmlns="http://www.w3.org/2000/svg">
<path d="M8.97397 6.51551C5.48675 6.84129 -0.855194 9.44749 0.0960845 16.6146C1.04736 23.7816 6.43797 24.809 11.1942 24.4332C15.9504 24.0573 19.7559 17.9177 18.4872 18.895C17.2186 19.8723 14.3653 19.5465 14.3653 19.5465C18.2944 17.4931 19.6728 16.6784 21.024 14.6599C17.6328 15.676 16.3542 15.7453 14.365 15.6372C21.6577 13.3568 22.8025 10.6959 24.5122 8.14439C18.3205 11.0681 16.1929 11.6488 14.0482 11.4021C23.671 7.1883 26.1124 4.65647 28 0C19.7989 4.05472 12.4612 6.18974 8.97397 6.51551Z" fill="white"/>
</svg>
