<svg width="27" height="27" viewBox="0 0 27 27" fill="none" xmlns="http://www.w3.org/2000/svg">
<path fill-rule="evenodd" clip-rule="evenodd" d="M13.4863 26.0977C13.3663 26.101 13.2458 26.1026 13.125 26.1026C5.87626 26.1026 0 20.2593 0 13.0513C0 5.84327 5.87626 0 13.125 0C20.3737 0 26.25 5.84327 26.25 13.0513C26.25 16.6933 24.7498 19.9869 22.3303 22.3544C23.3888 22.7214 24.4662 23.0269 25.3061 23.2467C25.8587 23.3912 25.945 24.1012 25.4196 24.3246C23.2256 25.2578 18.7617 26.7278 13.4863 26.0977ZM11.2793 11.1879C11.2793 12.2913 10.3611 13.1858 9.22852 13.1858C8.0959 13.1858 7.17773 12.2913 7.17773 11.1879C7.17773 10.4479 7.5907 9.80192 8.20435 9.45665C8.23969 10.4187 9.03518 11.1879 10.0113 11.1879H11.2793ZM16.6113 13.1858C15.4787 13.1858 14.5605 12.2913 14.5605 11.1879H15.8285C16.8047 11.1879 17.6002 10.4187 17.6355 9.45665C18.2492 9.80192 18.6621 10.4479 18.6621 11.1879C18.6621 12.2913 17.7439 13.1858 16.6113 13.1858Z" fill="white"/>
</svg>
