<svg width="22" height="24" viewBox="0 0 22 24" fill="none" xmlns="http://www.w3.org/2000/svg">
<path d="M21.0734 0.000120541C21.0833 0.0540589 23.7967 14.7761 18.6551 19.9179C14.2122 24.3608 8.91008 24.2643 4.83822 21.4571L8.3924 17.0881L14.7025 15.7236L9.5518 15.2077L12.8249 11.8697L16.5517 11.0514L13.6045 10.1772L16.5517 4.85319L12.3602 9.56263L10.7416 7.27421L11.312 11.0514L8.3924 14.348L7.03895 10.1772V15.7236L3.35979 20.2701C3.23582 20.1549 3.11162 20.0385 2.99104 19.9179C-1.21249 15.714 -1.03666 8.41998 3.84316 4.23171C8.72335 0.0433909 21.0734 0.000120541 21.0734 0.000120541Z" fill="white"/>
</svg>
