<svg width="26" height="20" viewBox="0 0 26 20" fill="none" xmlns="http://www.w3.org/2000/svg">
<path d="M7.50684 5.75293C8.23371 5.75298 8.73973 6.47477 8.49219 7.1582L4.36328 18.5586C4.213 18.9735 3.81825 19.25 3.37695 19.25H1.0498C0.318099 19.25 -0.189181 18.5192 0.0673828 17.834L4.33789 6.43262C4.49129 6.02342 4.88329 5.75293 5.32031 5.75293H7.50684ZM18.668 0C19.1138 6.16149e-05 19.5104 0.282213 19.6572 0.703125L25.6123 17.7812C25.8499 18.4626 25.3436 19.1748 24.6221 19.1748H5.59375C5.48714 19.1748 5.41267 19.0693 5.44824 18.9688L11.9141 0.698242C12.0623 0.279731 12.4583 0 12.9023 0H18.668Z" fill="white"/>
</svg>
