<svg width="30" height="30" viewBox="0 0 30 30" fill="none" xmlns="http://www.w3.org/2000/svg">
<path fill-rule="evenodd" clip-rule="evenodd" d="M21.9631 2.26062L22.0543 10.2716L15.0671 13.6257L14.9809 6.0619L21.9631 2.26062Z" fill="white"/>
<path fill-rule="evenodd" clip-rule="evenodd" d="M28.9675 14.884L22.0506 18.8403L15.1296 14.8777L22.047 11.2442L28.9675 14.884Z" fill="white"/>
<path fill-rule="evenodd" clip-rule="evenodd" d="M13.8991 14.884L6.98221 18.8403L0.0612307 14.8777L6.97864 11.2442L13.8991 14.884Z" fill="white"/>
<path fill-rule="evenodd" clip-rule="evenodd" d="M6.9049 2.22779L14.0841 5.7834L13.9006 13.5319L7.12203 10.1747L6.9049 2.22779Z" fill="white"/>
<path fill-rule="evenodd" clip-rule="evenodd" d="M22.1586 27.4187L14.9794 23.8631L15.1629 16.1146L21.9414 19.4718L22.1586 27.4187Z" fill="white"/>
<path fill-rule="evenodd" clip-rule="evenodd" d="M7.15262 27.4908L7.06139 19.4799L14.0486 16.1257L14.1348 23.6896L7.15262 27.4908Z" fill="white"/>
</svg>
