<svg width="27" height="27" viewBox="0 0 27 27" fill="none" xmlns="http://www.w3.org/2000/svg">
<path d="M13.125 0C20.3736 3.09331e-05 26.2498 5.18631 26.25 11.584C26.25 14.99 24.5839 18.0523 21.9326 20.1719C22.0437 20.6264 22.1055 21.1118 22.1055 21.6162C22.1054 24.1753 20.5589 26.2499 18.6514 26.25C17.5211 26.25 16.5178 25.5214 15.8877 24.3955C15.2576 25.5212 14.2551 26.25 13.125 26.25C11.8848 26.25 10.7976 25.3726 10.1885 24.0557C9.5793 25.3724 8.49304 26.25 7.25293 26.25C5.34556 26.2497 3.79886 24.1751 3.79883 21.6162C3.79884 21.0234 3.88295 20.4566 4.03418 19.9355C1.54894 17.8277 0 14.8664 0 11.584C0.000234449 5.18631 5.87644 3.13878e-05 13.125 0ZM12.9521 5.93262C8.66021 5.93269 5.18066 8.56635 5.18066 11.8145C5.18092 15.0624 8.66037 17.6952 12.9521 17.6953C17.244 17.6953 20.7234 15.0624 20.7236 11.8145C20.7236 8.5663 17.2442 5.93262 12.9521 5.93262Z" fill="white"/>
</svg>
