<svg width="23" height="25" viewBox="0 0 23 25" fill="none" xmlns="http://www.w3.org/2000/svg">
<path fill-rule="evenodd" clip-rule="evenodd" d="M20.9554 20.3457C20.9554 20.3457 17.8661 22.8234 11.7185 21.7981C7.05441 21.0202 4.56682 15.8787 4.56682 13.1151C4.56682 6.56278 9.41639 5.07169 12.695 5.07169C15.9736 5.07169 18.1124 8.26818 18.1124 10.7431C18.1124 13.218 16.362 15.3826 13.638 15.3826C10.914 15.3826 10.1072 13.4702 10.1072 11.7121C10.1072 9.95389 11.5297 9.33444 12.827 9.33444C14.1243 9.33444 14.5685 10.442 14.5685 11.394C14.5685 12.3459 13.8299 12.6868 13.2139 12.6868C12.5978 12.6868 12.5369 12.376 12.3011 12.0494C12.0654 11.7228 12.6018 10.4865 11.7185 10.4865C10.8352 10.4865 10.6705 11.9077 10.6705 11.9077C10.6705 11.9077 10.9925 14.6512 13.638 14.6038C16.2835 14.5565 17.5384 12.5113 17.1737 10.4865C16.809 8.46159 14.8439 6.30994 11.395 6.74472C7.94618 7.17951 6.53803 10.6643 7.15872 14.3883C7.77941 18.1123 12.2408 20.27 15.7485 19.4937C19.2563 18.7174 22.75 16.178 22.75 9.73935C22.75 3.30075 17.1737 -0.569441 10.5245 0.0683863C3.8753 0.706214 -0.252227 6.51937 0.0119717 13.504C0.27617 20.4887 6.90379 24.2928 12.5081 24.4888C18.1124 24.6849 21.5481 21.4407 21.5481 21.4407C21.5481 21.4407 22.3208 20.7517 22.0179 20.2136C21.7149 19.6756 20.9554 20.3457 20.9554 20.3457Z" fill="white"/>
</svg>
