<svg width="25" height="20" viewBox="0 0 25 20" fill="none" xmlns="http://www.w3.org/2000/svg">
<path d="M16.9619 10.9121C17.3984 10.6134 17.995 10.728 18.29 11.167L19.8535 13.4932C20.1404 13.9201 20.0361 14.498 19.6182 14.7979L13.8037 18.9688C13.5571 19.1456 13.2406 19.1941 12.9521 19.0996L7.57227 17.3369L16.9619 10.9121ZM17.4736 0.0439453C18.0552 0.0440873 18.5008 0.561474 18.415 1.13672L17.3564 8.23926C17.3176 8.4996 17.1726 8.73219 16.9561 8.88184L5.73926 16.626C5.49462 16.7948 5.18487 16.8394 4.90234 16.7471L0.65625 15.3584C0.264951 15.2304 0.000120222 14.8658 0 14.4541V10.0254C0 9.80365 0.0773133 9.58873 0.21875 9.41797L7.7041 0.388672C7.88487 0.170597 8.15328 0.044078 8.43652 0.0439453H17.4736ZM20.7461 0C20.8865 0 21.0113 0.0908249 21.0537 0.224609L24.3008 10.5078C24.4203 10.8867 24.2926 11.3004 23.9795 11.5449L22.6699 12.5664C22.247 12.8964 21.6351 12.8121 21.3174 12.3799L19.1523 9.43164C18.9995 9.2234 18.9378 8.96162 18.9814 8.70703L20.4287 0.267578C20.4552 0.113144 20.5894 0.000170791 20.7461 0Z" fill="white"/>
</svg>
