<svg width="26" height="23" viewBox="0 0 26 23" fill="none" xmlns="http://www.w3.org/2000/svg">
<path d="M18.4365 0C19.1293 5.56042e-05 19.7701 0.369143 20.1172 0.96875L25.5811 10.4082C25.9295 11.0102 25.9288 11.7527 25.5801 12.3545L20.1172 21.7822C19.7699 22.3814 19.129 22.75 18.4365 22.75H7.46582C6.77661 22.75 6.13847 22.3847 5.79004 21.79L0.266602 12.3623C-0.0883735 11.7565 -0.088952 11.0064 0.265625 10.4004L5.79004 0.960938C6.13831 0.365906 6.77638 9.82065e-05 7.46582 0H18.4365ZM12.9199 5.25C9.53718 5.25 6.79492 7.99226 6.79492 11.375C6.79492 14.7577 9.53718 17.5 12.9199 17.5C16.3027 17.5 19.0449 14.7577 19.0449 11.375C19.0449 7.99226 16.3027 5.25001 12.9199 5.25Z" fill="white"/>
</svg>
